<svg width="2179" height="773" viewBox="0 0 2179 773" fill="none" xmlns="http://www.w3.org/2000/svg">
<rect width="2179" height="773" fill="#2F2F2F"/>
<g filter="url(#filter0_d)">
<path d="M909.406 415.856L903.744 415.816L903.811 409.786L903.672 409.785C900.998 414.342 896.921 416.601 891.443 416.564C887.001 416.533 883.463 414.926 880.828 411.742C878.217 408.535 876.941 404.194 877.002 398.718C877.067 392.849 878.593 388.158 881.578 384.643C884.563 381.128 888.507 379.388 893.41 379.421C898.266 379.455 901.778 381.397 903.945 385.248L904.083 385.248L904.327 363.276L909.989 363.315L909.406 415.856ZM903.922 399.77L903.98 394.537C904.012 391.672 903.095 389.239 901.23 387.239C899.364 385.239 896.982 384.229 894.082 384.209C890.629 384.185 887.899 385.437 885.891 387.965C883.884 390.493 882.855 393.998 882.805 398.481C882.76 402.57 883.668 405.812 885.529 408.204C887.413 410.574 889.955 411.77 893.154 411.792C896.307 411.814 898.875 410.688 900.856 408.414C902.861 406.14 903.883 403.259 903.922 399.77Z" fill="#F2F4F8"/>
<path d="M963.918 417.063C958.693 417.027 954.534 415.346 951.44 412.021C948.37 408.672 946.865 404.26 946.926 398.784C946.993 392.823 948.667 388.178 951.949 384.85C955.232 381.523 959.635 379.878 965.159 379.916C970.43 379.952 974.52 381.609 977.43 384.887C980.363 388.166 981.798 392.693 981.733 398.469C981.671 404.13 980.021 408.659 976.783 412.057C973.569 415.431 969.281 417.1 963.918 417.063ZM964.692 384.696C961.055 384.671 958.164 385.898 956.019 388.379C953.874 390.837 952.777 394.249 952.729 398.616C952.682 402.821 953.716 406.144 955.829 408.585C957.943 411.026 960.795 412.258 964.385 412.283C968.045 412.308 970.866 411.138 972.849 408.771C974.855 406.405 975.882 403.027 975.931 398.637C975.98 394.201 975.029 390.775 973.076 388.358C971.146 385.942 968.351 384.721 964.692 384.696Z" fill="#F2F4F8"/>
<path d="M1035.27 416.376C1033.92 417.106 1032.16 417.464 1029.97 417.449C1023.78 417.406 1020.72 413.919 1020.8 406.988L1021.03 385.985L1014.96 385.943L1015.01 381.091L1021.09 381.133L1021.18 372.469L1026.87 370.671L1026.75 381.172L1035.66 381.233L1035.6 386.085L1026.7 386.024L1026.47 406.021C1026.45 408.401 1026.83 410.102 1027.62 411.124C1028.42 412.147 1029.75 412.664 1031.61 412.677C1033.04 412.687 1034.28 412.303 1035.32 411.524L1035.27 416.376Z" fill="#F2F4F8"/>
<path d="M1089.1 369.54C1088.01 368.908 1086.75 368.588 1085.35 368.578C1081.39 368.551 1079.38 371.044 1079.33 376.058L1079.27 381.534L1087.55 381.591L1087.5 386.443L1079.21 386.386L1078.87 417.023L1073.25 416.985L1073.59 386.347L1067.54 386.306L1067.6 381.453L1073.64 381.495L1073.7 375.742C1073.75 372.022 1074.85 369.095 1077.01 366.961C1079.18 364.804 1081.86 363.736 1085.06 363.758C1086.79 363.77 1088.15 363.988 1089.16 364.411L1089.1 369.54Z" fill="#F2F4F8"/>
<path d="M1124.95 372.837C1123.94 372.83 1123.08 372.477 1122.37 371.779C1121.66 371.081 1121.32 370.201 1121.33 369.138C1121.34 368.075 1121.71 367.2 1122.43 366.511C1123.15 365.8 1124.02 365.448 1125.03 365.455C1126.07 365.462 1126.94 365.826 1127.64 366.547C1128.37 367.246 1128.73 368.126 1128.72 369.189C1128.71 370.206 1128.33 371.069 1127.58 371.781C1126.86 372.492 1125.98 372.844 1124.95 372.837ZM1127.22 417.356L1121.55 417.317L1121.95 381.828L1127.61 381.867L1127.22 417.356Z" fill="#F2F4F8"/>
<path d="M1172.62 417.669L1166.96 417.63L1167.54 365.089L1173.21 365.128L1172.62 417.669Z" fill="#F2F4F8"/>
<path d="M1240.96 401.815L1216 401.643C1216.05 405.595 1217.07 408.652 1219.08 410.815C1221.08 412.977 1223.85 414.071 1227.4 414.095C1231.38 414.123 1235.05 412.831 1238.42 410.22L1238.36 415.557C1235.23 417.8 1231.11 418.904 1226 418.869C1221 418.834 1217.09 417.202 1214.28 413.97C1211.46 410.716 1210.08 406.166 1210.15 400.32C1210.21 394.798 1211.81 390.315 1214.96 386.871C1218.13 383.403 1222.02 381.686 1226.65 381.718C1231.28 381.749 1234.84 383.276 1237.34 386.297C1239.84 389.318 1241.06 393.497 1241 398.835L1240.96 401.815ZM1235.22 396.958C1235.23 393.677 1234.46 391.118 1232.92 389.282C1231.4 387.446 1229.26 386.519 1226.49 386.5C1223.82 386.481 1221.55 387.424 1219.66 389.329C1217.77 391.234 1216.6 393.733 1216.12 396.826L1235.22 396.958Z" fill="#F2F4F8"/>
<path d="M1275.53 417.096L1275.6 410.996C1278.66 413.305 1282.04 414.472 1285.75 414.498C1290.72 414.532 1293.22 412.885 1293.26 409.558C1293.27 408.611 1293.06 407.812 1292.63 407.162C1292.23 406.489 1291.66 405.896 1290.93 405.383C1290.22 404.87 1289.37 404.413 1288.39 404.014C1287.42 403.591 1286.38 403.156 1285.26 402.71C1283.7 402.075 1282.33 401.442 1281.14 400.81C1279.97 400.155 1278.99 399.431 1278.19 398.64C1277.42 397.826 1276.83 396.91 1276.43 395.89C1276.05 394.871 1275.86 393.679 1275.88 392.316C1275.9 390.653 1276.29 389.188 1277.07 387.923C1277.84 386.634 1278.87 385.567 1280.14 384.72C1281.42 383.851 1282.86 383.203 1284.48 382.775C1286.12 382.347 1287.8 382.139 1289.53 382.151C1292.59 382.172 1295.32 382.722 1297.73 383.802L1297.66 389.555C1295.08 387.827 1292.1 386.952 1288.71 386.928C1287.66 386.921 1286.7 387.042 1285.84 387.29C1284.99 387.515 1284.25 387.845 1283.62 388.28C1283.02 388.715 1282.54 389.243 1282.19 389.864C1281.86 390.463 1281.69 391.132 1281.68 391.871C1281.67 392.795 1281.83 393.57 1282.14 394.196C1282.48 394.823 1282.97 395.381 1283.61 395.87C1284.25 396.36 1285.02 396.804 1285.94 397.203C1286.86 397.603 1287.9 398.037 1289.07 398.507C1290.63 399.119 1292.02 399.752 1293.26 400.408C1294.5 401.04 1295.55 401.764 1296.41 402.579C1297.28 403.37 1297.94 404.287 1298.38 405.33C1298.86 406.373 1299.08 407.611 1299.07 409.044C1299.05 410.8 1298.64 412.322 1297.84 413.61C1297.07 414.899 1296.03 415.966 1294.74 416.812C1293.44 417.658 1291.94 418.284 1290.26 418.688C1288.58 419.092 1286.81 419.288 1284.97 419.275C1281.33 419.25 1278.19 418.524 1275.53 417.096Z" fill="#F2F4F8"/>
<path d="M1065.36 315L1074.91 318.475L1078.86 326.865L1074.91 335.254L1065.36 338.729L1055.82 335.254L1051.86 326.865L1055.82 318.475L1065.36 315Z" fill="#F2F4F8"/>
<path d="M1127.85 315L1137.4 318.475L1141.35 326.865L1137.4 335.254L1127.85 338.729L1118.31 335.254L1114.35 326.865L1118.31 318.475L1127.85 315Z" fill="#F2F4F8"/>
<path d="M1096.61 315L1105.97 318.475L1109.85 326.865L1105.97 335.254L1096.61 338.729L1087.24 335.254L1083.36 326.865L1087.24 318.475L1096.61 315Z" fill="#F2F4F8"/>
</g>
<g filter="url(#filter1_d)">
<line x1="931.621" y1="458.5" x2="1234.52" y2="458.5" stroke="#F2F4F8"/>
</g>
<defs>
<filter id="filter0_d" x="873" y="315" width="430.069" height="112.276" filterUnits="userSpaceOnUse" color-interpolation-filters="sRGB">
<feFlood flood-opacity="0" result="BackgroundImageFix"/>
<feColorMatrix in="SourceAlpha" type="matrix" values="0 0 0 0 0 0 0 0 0 0 0 0 0 0 0 0 0 0 127 0"/>
<feOffset dy="4"/>
<feGaussianBlur stdDeviation="2"/>
<feColorMatrix type="matrix" values="0 0 0 0 0 0 0 0 0 0 0 0 0 0 0 0 0 0 0.25 0"/>
<feBlend mode="normal" in2="BackgroundImageFix" result="effect1_dropShadow"/>
<feBlend mode="normal" in="SourceGraphic" in2="effect1_dropShadow" result="shape"/>
</filter>
<filter id="filter1_d" x="927.621" y="458" width="310.897" height="9" filterUnits="userSpaceOnUse" color-interpolation-filters="sRGB">
<feFlood flood-opacity="0" result="BackgroundImageFix"/>
<feColorMatrix in="SourceAlpha" type="matrix" values="0 0 0 0 0 0 0 0 0 0 0 0 0 0 0 0 0 0 127 0"/>
<feOffset dy="4"/>
<feGaussianBlur stdDeviation="2"/>
<feColorMatrix type="matrix" values="0 0 0 0 0 0 0 0 0 0 0 0 0 0 0 0 0 0 0.25 0"/>
<feBlend mode="normal" in2="BackgroundImageFix" result="effect1_dropShadow"/>
<feBlend mode="normal" in="SourceGraphic" in2="effect1_dropShadow" result="shape"/>
</filter>
</defs>
</svg>
